<svg aria-hidden="true" style="position: absolute; width: 0; height: 0; overflow: hidden;" version="1.1" xmlns="http://www.w3.org/2000/svg" xmlns:xlink="http://www.w3.org/1999/xlink">
<defs>
<symbol id="icon-close" viewBox="0 0 32 32">
<path stroke-linejoin="round" stroke-linecap="round" stroke-miterlimit="4" stroke-width="1.6" d="M24 24l-16-16M24 8l-16 16"></path>
</symbol>
<symbol id="icon-menu" viewBox="0 0 32 32">
<path stroke-linejoin="miter" stroke-linecap="round" stroke-miterlimit="10" stroke-width="2.4" d="M4.8 9.6h22.4M4.8 16h22.4M4.8 21.6h22.4"></path>
</symbol>
<symbol id="icon-email" viewBox="0 0 32 32">
<path d="M26.88 5.6h-21.76c-1.496 0-2.706 1.17-2.706 2.6l-0.014 15.6c0 1.43 1.224 2.6 2.72 2.6h21.76c1.496 0 2.72-1.17 2.72-2.6v-15.6c0-1.43-1.224-2.6-2.72-2.6zM26.336 11.125l-9.615 5.746c-0.435 0.26-1.006 0.26-1.442 0l-9.615-5.746c-0.136-0.073-0.256-0.172-0.351-0.291s-0.164-0.254-0.203-0.399c-0.039-0.145-0.046-0.296-0.022-0.443s0.079-0.289 0.162-0.416c0.083-0.127 0.192-0.236 0.32-0.322s0.274-0.145 0.427-0.175c0.153-0.030 0.311-0.030 0.464-0s0.299 0.089 0.427 0.174l9.112 5.447 9.112-5.447c0.129-0.085 0.274-0.144 0.427-0.174s0.311-0.030 0.464 0c0.153 0.030 0.298 0.090 0.427 0.175s0.237 0.195 0.32 0.322c0.083 0.127 0.138 0.268 0.162 0.416s0.016 0.299-0.022 0.443-0.108 0.281-0.203 0.399c-0.095 0.119-0.215 0.217-0.351 0.291z"></path>
</symbol>
<symbol id="icon-phone" viewBox="0 0 32 32">
<path d="M21.415 1.6h-10.831c-0.898 0-1.758 0.345-2.393 0.959s-0.991 1.446-0.991 2.314v22.255c0 0.868 0.357 1.7 0.991 2.314s1.496 0.959 2.393 0.959h10.831c0.898 0 1.759-0.345 2.393-0.959s0.991-1.446 0.991-2.314v-22.255c0-0.868-0.357-1.7-0.991-2.314s-1.496-0.959-2.393-0.959zM16 29.091c-1.124 0-2.031-0.877-2.031-1.964s0.907-1.964 2.031-1.964c1.124 0 2.031 0.877 2.031 1.964s-0.907 1.964-2.031 1.964zM22.092 23.855h-12.185v-18.327h12.185v18.327z"></path>
</symbol>
<symbol id="icon-place" viewBox="0 0 32 32">
<path d="M16 2.4c-5.307 0-9.6 4.257-9.6 9.52 0 7.14 9.6 17.68 9.6 17.68s9.6-10.54 9.6-17.68c0-5.263-4.293-9.52-9.6-9.52zM16 15.32c-0.909 0-1.781-0.358-2.424-0.996s-1.004-1.502-1.004-2.404c0-0.902 0.361-1.767 1.004-2.404s1.515-0.996 2.424-0.996c0.909 0 1.781 0.358 2.424 0.996s1.004 1.502 1.004 2.404c0 0.902-0.361 1.767-1.004 2.404s-1.515 0.996-2.424 0.996z"></path>
</symbol>
<symbol id="icon-right" viewBox="0 0 32 32">
<path d="M12.205 26.4c0.265-0.004 0.519-0.104 0.712-0.283l9.991-9.844c0.188-0.187 0.293-0.439 0.293-0.701s-0.105-0.515-0.293-0.701l-9.991-9.844c-0.194-0.157-0.44-0.237-0.691-0.225s-0.488 0.116-0.666 0.291c-0.178 0.175-0.283 0.409-0.295 0.656s0.069 0.49 0.228 0.681l9.291 9.143-9.291 9.143c-0.188 0.187-0.293 0.439-0.293 0.701s0.105 0.515 0.293 0.701c0.193 0.179 0.447 0.28 0.712 0.283z"></path>
</symbol>
<symbol id="icon-left" viewBox="0 0 32 32">
<path d="M19.795 26.4c-0.265-0.004-0.519-0.104-0.712-0.283l-9.991-9.844c-0.188-0.187-0.293-0.439-0.293-0.701s0.105-0.515 0.293-0.701l9.991-9.844c0.194-0.157 0.44-0.237 0.691-0.225s0.488 0.116 0.666 0.291c0.178 0.175 0.283 0.409 0.295 0.656s-0.069 0.49-0.228 0.681l-9.291 9.143 9.291 9.143c0.188 0.187 0.293 0.439 0.293 0.701s-0.105 0.515-0.293 0.701c-0.193 0.179-0.447 0.28-0.712 0.283z"></path>
</symbol>
<symbol id="icon-round" viewBox="0 0 32 32">
<path d="M16 9.333c-7.36 0-13.333 2.987-13.333 6.667 0 2.987 3.92 5.507 9.333 6.36v2.693c0 0.6 0.72 0.893 1.133 0.467l3.72-3.72c0.267-0.267 0.267-0.68 0-0.947l-3.72-3.72c-0.094-0.092-0.213-0.154-0.342-0.179s-0.263-0.010-0.384 0.041c-0.121 0.051-0.225 0.137-0.297 0.247s-0.111 0.239-0.11 0.37v2.027c-4.2-0.747-6.667-2.533-6.667-3.64 0-1.413 4.053-4 10.667-4s10.667 2.587 10.667 4c0 0.88-1.6 2.24-4.427 3.12-0.547 0.173-0.907 0.68-0.907 1.253 0 0.893 0.867 1.547 1.707 1.28 3.773-1.173 6.293-3.267 6.293-5.653 0-3.68-5.973-6.667-13.333-6.667z"></path>
</symbol>
<symbol id="icon-star" viewBox="0 0 32 32">
<path d="M15.247 6.173c0.237-0.764 1.268-0.764 1.505 0l1.913 6.165c0.106 0.342 0.41 0.573 0.753 0.573h6.189c0.767 0 1.085 1.028 0.465 1.499l-5.007 3.81c-0.277 0.211-0.393 0.585-0.288 0.927l1.913 6.165c0.237 0.764-0.598 1.399-1.218 0.927l-5.007-3.81c-0.277-0.211-0.653-0.211-0.93 0l-5.007 3.81c-0.62 0.472-1.455-0.163-1.218-0.927l1.913-6.165c0.106-0.342-0.010-0.716-0.288-0.927l-5.007-3.81c-0.62-0.472-0.301-1.499 0.465-1.499h6.189c0.343 0 0.647-0.231 0.753-0.573l1.913-6.165z"></path>
</symbol>
<symbol id="icon-facebook" viewBox="0 0 32 32">
<path d="M16 2.72c-7.333 0-13.333 5.987-13.333 13.36 0 6.667 4.88 12.2 11.253 13.2v-9.333h-3.387v-3.867h3.387v-2.947c0-3.347 1.987-5.187 5.040-5.187 1.453 0 2.973 0.253 2.973 0.253v3.293h-1.68c-1.653 0-2.173 1.027-2.173 2.080v2.507h3.707l-0.6 3.867h-3.107v9.333c3.142-0.496 6.003-2.099 8.067-4.52s3.194-5.499 3.187-8.68c0-7.373-6-13.36-13.333-13.36z"></path>
</symbol>
<symbol id="icon-instagram" viewBox="0 0 32 32">
<path d="M10.4 2.667h11.2c4.267 0 7.733 3.467 7.733 7.733v11.2c0 2.051-0.815 4.018-2.265 5.468s-3.417 2.265-5.468 2.265h-11.2c-4.267 0-7.733-3.467-7.733-7.733v-11.2c0-2.051 0.815-4.018 2.265-5.468s3.417-2.265 5.468-2.265zM10.133 5.333c-1.273 0-2.494 0.506-3.394 1.406s-1.406 2.121-1.406 3.394v11.733c0 2.653 2.147 4.8 4.8 4.8h11.733c1.273 0 2.494-0.506 3.394-1.406s1.406-2.121 1.406-3.394v-11.733c0-2.653-2.147-4.8-4.8-4.8h-11.733zM23 7.333c0.442 0 0.866 0.176 1.179 0.488s0.488 0.736 0.488 1.179c0 0.442-0.176 0.866-0.488 1.178s-0.736 0.488-1.179 0.488c-0.442 0-0.866-0.176-1.178-0.488s-0.488-0.736-0.488-1.178c0-0.442 0.176-0.866 0.488-1.179s0.736-0.488 1.178-0.488zM16 9.333c1.768 0 3.464 0.702 4.714 1.953s1.953 2.946 1.953 4.714c0 1.768-0.702 3.464-1.953 4.714s-2.946 1.953-4.714 1.953c-1.768 0-3.464-0.702-4.714-1.953s-1.953-2.946-1.953-4.714c0-1.768 0.702-3.464 1.953-4.714s2.946-1.953 4.714-1.953zM16 12c-1.061 0-2.078 0.421-2.828 1.172s-1.172 1.768-1.172 2.828c0 1.061 0.421 2.078 1.172 2.828s1.768 1.172 2.828 1.172c1.061 0 2.078-0.421 2.828-1.172s1.172-1.768 1.172-2.828c0-1.061-0.421-2.078-1.172-2.828s-1.768-1.172-2.828-1.172z"></path>
</symbol>
<symbol id="icon-telegram" viewBox="0 0 32 32">
<path d="M15.992 2.667c-2.637 0-5.215 0.782-7.408 2.247s-3.902 3.548-4.911 5.984c-1.009 2.436-1.273 5.117-0.759 7.704s1.784 4.962 3.649 6.827c1.865 1.865 4.24 3.135 6.827 3.649s5.267 0.25 7.704-0.759c2.436-1.009 4.519-2.718 5.984-4.911s2.247-4.771 2.247-7.408c0-1.751-0.345-3.485-1.015-5.102s-1.652-3.088-2.89-4.326c-1.238-1.238-2.708-2.22-4.326-2.89s-3.352-1.015-5.102-1.015zM20.232 22.869c-0.050 0.125-0.126 0.237-0.222 0.33s-0.212 0.164-0.339 0.208c-0.127 0.044-0.261 0.061-0.395 0.050s-0.263-0.052-0.38-0.118l-3.62-2.813-2.323 2.144c-0.054 0.040-0.117 0.065-0.183 0.075s-0.134 0.001-0.197-0.023l0.445-3.985 0.013 0.012 0.009-0.079c0 0 6.513-5.931 6.779-6.183 0.269-0.252 0.18-0.307 0.18-0.307 0.016-0.307-0.481 0-0.481 0l-8.631 5.552-3.593-1.224c0 0-0.552-0.197-0.604-0.633-0.055-0.432 0.621-0.667 0.621-0.667l14.289-5.677c0 0 1.175-0.523 1.175 0.344l-2.544 12.995z"></path>
</symbol>
<symbol id="icon-logo" viewBox="0 0 31 32">
<path d="M28.188 6.092l-10.032-5.474c-0.73-0.398-1.691-0.618-2.708-0.618s-1.979 0.219-2.708 0.618l-10.032 5.474c-1.519 0.829-2.708 2.777-2.708 4.434v10.951c0 1.657 1.19 3.605 2.708 4.434l10.032 5.473c0.73 0.398 1.691 0.617 2.708 0.617s1.979-0.219 2.708-0.617l10.032-5.476c1.519-0.829 2.708-2.776 2.708-4.434v-10.95c0-1.653-1.19-3.602-2.708-4.431zM3.269 24.99c-1.164-0.635-2.147-2.245-2.147-3.515v-4.68c3.572-0.266 5.688 0.629 8.329 1.753 2.377 1.012 5.236 2.226 9.908 2.88-0.873 0.158-1.754 0.304-2.633 0.449-4.771 0.787-9.282 1.536-11.749 4.045l-1.708-0.932zM18.337 15.465c-2.156 0.81-4.963 1.536-9.115 1.825-1.836-0.771-3.583-1.422-5.873-1.573l7.628-7.209 7.36 6.957zM17.804 13.462l5.485-5.184 4.123 3.897c-2.373 0.204-4.034 0.999-5.876 1.885-0.642 0.309-1.324 0.636-2.084 0.96l-1.648-1.558zM29.774 21.475c0 1.27-0.983 2.88-2.147 3.515l-10.032 5.475c-0.552 0.302-1.334 0.477-2.147 0.477s-1.595-0.173-2.147-0.476l-7.329-4.001c2.262-2.112 6.489-2.809 10.946-3.545 5.025-0.828 10.199-1.683 12.856-4.75l-0.001 3.304zM29.774 16.189c-1.179 2.418-3.862 3.685-7.058 4.518-5.507-0.378-8.752-1.457-11.412-2.543 5.439-0.616 8.35-2.014 10.739-3.163 2.353-1.131 4.238-2.032 7.731-1.775v2.962zM29.774 12.164c-0.285-0.020-0.564-0.034-0.831-0.040l-5.258-4.97c-0.052-0.049-0.114-0.088-0.182-0.115s-0.141-0.040-0.215-0.040c-0.074 0-0.147 0.014-0.215 0.040s-0.13 0.066-0.182 0.115l-5.88 5.559-5.639-5.329c-0.052-0.049-0.114-0.088-0.182-0.115s-0.141-0.040-0.215-0.040c-0.074 0-0.147 0.014-0.215 0.040s-0.13 0.066-0.182 0.115l-8.795 8.314c-0.216 0.007-0.437 0.018-0.662 0.034v-5.205c0-1.271 0.983-2.881 2.147-3.516l10.032-5.475c0.554-0.302 1.336-0.476 2.147-0.476s1.595 0.173 2.147 0.476l10.032 5.475c1.164 0.635 2.147 2.245 2.147 3.516l-0.003 1.638z"></path>
</symbol>
</defs>
</svg>
